<?xml version="1.0" standalone="no"?>
<!DOCTYPE svg PUBLIC "-//W3C//DTD SVG 20010904//EN"
 "http://www.w3.org/TR/2001/REC-SVG-20010904/DTD/svg10.dtd">
<svg version="1.0" xmlns="http://www.w3.org/2000/svg"
 width="458.000000pt" height="469.000000pt" viewBox="0 0 458.000000 469.000000"
 preserveAspectRatio="xMidYMid meet">

<g transform="translate(0.000000,469.000000) scale(0.100000,-0.100000)"
fill="#000000" stroke="none">
<path d="M2682 4165 c-106 -89 -208 -290 -283 -555 l-29 -105 5 137 c4 128 4
138 -14 148 -38 20 -66 12 -100 -31 -31 -38 -93 -168 -121 -252 -6 -21 -14
-37 -16 -35 -7 8 18 136 58 296 45 181 45 179 -21 201 -55 18 -75 -2 -110
-114 -47 -144 -84 -534 -63 -660 6 -33 9 -61 8 -62 -1 -1 -27 1 -59 4 l-57 6
0 46 c0 70 26 264 49 366 35 155 79 294 162 512 l24 63 -22 21 c-15 15 -35 22
-64 23 l-42 1 -41 -80 c-53 -103 -109 -276 -141 -434 -14 -69 -27 -127 -30
-130 -8 -7 -159 -50 -164 -46 -2 2 6 46 18 97 23 103 41 229 41 288 0 30 -6
43 -26 59 -30 23 -79 28 -91 9 -30 -48 -83 -349 -83 -474 l0 -85 -26 20 c-15
12 -39 21 -55 21 -18 0 -29 6 -33 18 -18 63 -38 210 -46 351 -5 94 -14 169
-21 177 -15 19 -86 37 -116 29 -27 -6 -31 -15 -79 -175 -61 -201 -85 -331 -87
-470 l-2 -125 56 -9 c54 -9 57 -8 134 38 44 25 84 46 90 46 6 0 24 -14 40 -30
31 -33 101 -58 117 -42 6 6 -3 27 -23 56 -36 50 -33 62 18 72 34 7 34 7 48
-101 11 -84 28 -112 74 -126 32 -10 43 -9 56 1 19 15 19 29 1 49 -8 9 -17 49
-21 88 l-7 73 28 10 c16 6 55 24 86 41 31 16 58 26 60 22 2 -5 2 -72 0 -150
-3 -131 -5 -143 -21 -143 -10 0 -55 -18 -99 -40 -177 -89 -301 -272 -346 -510
-19 -95 -21 -318 -5 -404 10 -55 9 -59 -13 -74 -13 -8 -41 -35 -63 -59 -31
-33 -48 -43 -72 -43 -23 0 -39 -9 -62 -36 -26 -29 -31 -43 -30 -82 0 -26 -2
-88 -6 -138 -9 -105 4 -144 58 -181 17 -13 43 -31 57 -42 17 -13 49 -21 98
-26 71 -6 73 -6 100 24 99 109 108 145 54 231 -18 28 -29 56 -26 62 3 5 26
-25 51 -68 114 -201 240 -335 406 -432 37 -21 64 -42 60 -46 -14 -13 -53 -5
-63 14 -26 48 -147 11 -200 -61 -59 -82 -74 -140 -74 -289 -1 -125 1 -139 25
-190 28 -61 74 -112 123 -137 38 -20 163 -24 175 -5 4 7 27 22 52 35 35 17 50
34 74 81 26 52 29 68 29 147 l-1 89 27 0 c54 0 112 78 95 129 -4 14 3 26 27
45 l33 25 22 -44 23 -43 -21 -47 c-14 -31 -19 -58 -16 -79 24 -135 29 -146 79
-172 15 -8 28 -21 28 -28 0 -14 38 -50 76 -72 16 -10 17 -13 5 -27 -7 -10 -13
-36 -13 -58 1 -37 7 -47 49 -85 58 -53 97 -63 167 -41 126 40 279 242 307 403
6 38 16 79 21 91 16 32 1 105 -32 157 -16 25 -34 46 -39 46 -4 0 -11 13 -14
28 -8 39 -79 116 -130 141 -68 33 -158 29 -224 -9 -29 -17 -57 -40 -64 -51
-10 -20 -12 -20 -27 -5 -9 8 -14 17 -11 18 135 90 187 141 248 243 90 149 135
389 112 598 -7 61 -15 127 -18 144 -4 23 -1 34 8 37 152 44 233 129 261 272 8
43 22 72 48 104 51 62 65 94 78 177 8 44 27 103 52 154 48 100 52 148 14 186
-20 20 -32 24 -55 19 -22 -4 -29 -2 -27 6 3 7 23 16 46 20 46 8 72 20 97 44
22 22 13 55 -29 114 -18 25 -39 62 -46 84 -18 55 -8 171 18 221 26 49 77 110
67 80 -40 -122 -43 -178 -13 -199 35 -25 43 -20 67 40 13 31 48 92 77 137 30
44 57 89 60 100 5 17 12 19 51 13 25 -3 48 -8 53 -11 4 -2 -17 -62 -47 -132
-102 -238 -183 -503 -183 -595 0 -45 43 -133 74 -153 35 -23 48 -12 29 26 -11
22 -13 45 -9 80 15 115 139 418 265 649 68 125 69 125 107 128 62 4 67 -5 42
-76 -19 -57 -19 -63 -5 -86 9 -13 29 -28 46 -34 28 -10 29 -9 35 21 3 18 27
58 53 90 47 57 48 58 88 51 22 -3 58 -12 80 -20 53 -18 55 -18 55 11 0 35 -19
72 -48 91 -25 16 -211 54 -267 54 -42 0 -46 6 -29 46 13 30 13 38 -1 64 -14
27 -60 60 -84 60 -15 0 -79 -70 -103 -112 l-22 -38 -82 0 c-97 0 -134 -11
-134 -40 0 -17 -3 -19 -19 -10 -32 16 -67 12 -83 -11 -13 -20 -17 -21 -51 -10
-48 16 -96 1 -147 -45 -106 -96 -114 -291 -19 -447 37 -61 37 -82 -2 -103 -47
-24 -170 -39 -180 -22 -21 33 -10 48 36 48 25 0 45 3 45 8 0 19 -36 55 -68 69
l-35 14 6 102 c3 56 16 152 27 212 36 191 38 213 22 236 -16 23 -70 49 -101
49 -57 0 -341 -566 -341 -680 0 -25 7 -33 41 -51 46 -23 53 -22 173 10 87 23
100 20 98 -28 0 -25 5 -32 39 -45 22 -9 53 -16 70 -16 21 0 29 -4 25 -12 -2
-7 -10 -30 -17 -51 -9 -29 -16 -36 -28 -31 -9 4 -33 9 -54 12 -51 6 -83 -17
-99 -70 -7 -24 -27 -56 -44 -73 -66 -63 -51 -170 32 -222 34 -22 44 -34 44
-54 0 -15 6 -32 14 -38 12 -10 11 -19 -5 -64 -25 -68 -47 -88 -102 -94 l-46
-5 -37 73 c-51 101 -123 206 -194 283 -49 52 -60 70 -60 97 0 45 -30 92 -79
125 -45 29 -117 42 -148 26 -63 -34 -54 47 38 343 41 128 59 168 59 130 0 -11
7 -67 14 -125 15 -110 43 -199 72 -231 36 -39 136 -10 113 33 -14 25 4 124 44
243 59 175 92 241 254 518 35 59 63 114 63 122 0 17 -50 45 -79 45 -11 0 -33
-11 -49 -25z m118 -627 c0 -29 3 -69 6 -89 l6 -37 -52 -11 c-29 -6 -55 -10
-57 -8 -2 3 15 42 37 88 22 45 40 89 40 96 0 7 5 13 10 13 6 0 10 -24 10 -52z
m-1574 -63 c15 -47 25 -87 23 -88 -2 -1 -26 -13 -53 -25 l-49 -23 5 23 c3 13
14 62 23 111 10 48 20 87 21 87 2 0 15 -38 30 -85z m1856 -272 c27 -32 27 -51
4 -95 -13 -24 -27 -54 -30 -68 -4 -14 5 -2 20 25 49 92 99 122 124 74 15 -27
7 -56 -41 -153 -21 -44 -39 -91 -39 -105 -1 -61 -29 -146 -57 -170 -15 -13
-32 -34 -38 -45 -14 -27 -57 -32 -110 -11 -53 20 -79 47 -71 73 5 15 -1 25
-27 41 -68 42 -87 67 -87 114 0 62 29 97 79 97 62 0 93 -52 68 -113 -17 -39
-50 -53 -72 -30 -8 8 -15 10 -15 5 0 -5 7 -15 15 -22 23 -19 63 -3 81 31 l16
31 26 -23 27 -24 -24 27 c-21 24 -22 31 -12 59 15 43 13 71 -2 35 l-13 -29
-18 27 c-9 15 -31 32 -47 38 -62 21 -21 117 45 104 36 -7 66 -38 66 -70 1 -33
16 1 24 53 10 66 53 141 81 141 7 0 19 -8 27 -17z m-1067 -115 c71 -15 125
-38 125 -53 0 -6 19 -20 43 -31 23 -10 61 -36 84 -58 24 -21 49 -36 57 -33 32
12 198 -189 270 -328 42 -80 43 -85 17 -85 -43 0 -29 -19 16 -22 41 -3 50 -7
70 -37 44 -65 27 -148 -45 -223 -45 -48 -20 -53 33 -7 19 17 35 29 35 26 0 -2
5 -29 10 -58 14 -72 14 -291 0 -370 -15 -90 -54 -203 -93 -274 -31 -54 -39
-62 -93 -84 -86 -36 -237 -41 -331 -12 -282 86 -508 418 -614 901 -29 133 -37
397 -15 498 27 128 56 169 161 232 67 39 146 45 270 18z m-855 -1136 c0 -4 -7
-17 -15 -28 -13 -19 -12 -23 7 -44 26 -28 78 -50 118 -50 23 0 33 6 42 25 13
29 21 31 39 9 10 -12 10 -22 2 -45 -10 -27 -8 -36 23 -87 41 -68 43 -100 9
-132 -14 -13 -25 -29 -25 -36 0 -7 -12 -22 -27 -33 -31 -25 -55 -20 -95 17
-16 14 -28 21 -28 14 0 -6 5 -14 10 -17 15 -10 12 -25 -6 -25 -8 0 -29 13 -45
29 -16 17 -39 33 -50 36 -45 15 -62 118 -35 208 8 26 12 65 9 86 -4 31 -1 43
16 60 21 21 51 29 51 13z m1192 -665 c47 -70 68 -112 68 -135 0 -13 -20 -31
-59 -54 l-59 -35 -17 37 c-9 20 -36 68 -60 106 l-44 69 22 24 c26 27 52 39 88
40 21 1 33 -10 61 -52z m-202 -20 c0 -8 13 -32 29 -55 l30 -40 -43 -36 c-24
-19 -59 -45 -79 -56 l-36 -22 -21 34 c-23 38 -27 31 -6 -11 24 -46 41 -55 70
-36 46 31 56 -4 14 -51 -23 -26 -91 -30 -126 -7 -37 23 -62 89 -62 163 0 90
14 108 82 106 57 -1 66 -13 24 -34 -14 -7 -26 -17 -26 -23 0 -12 43 11 95 50
45 34 55 37 55 18z m-340 -16 c0 -5 -14 -14 -31 -22 -72 -29 -125 -181 -117
-329 8 -140 79 -247 176 -266 51 -10 37 -24 -25 -24 -79 0 -128 29 -170 99
-41 68 -57 146 -50 241 11 146 63 255 142 295 33 16 75 20 75 6z m1020 -123
c48 -25 77 -65 91 -126 10 -47 -4 -63 -21 -22 -18 44 -53 64 -110 62 -111 -2
-158 -59 -201 -246 -24 -101 -46 -151 -79 -181 -13 -11 -29 -35 -37 -53 -7
-18 -18 -30 -23 -27 -21 13 -9 61 25 103 43 54 61 111 76 232 19 161 59 235
145 265 55 20 83 18 134 -7z m-430 -98 c0 -38 -4 -70 -10 -70 -5 0 -20 -19
-34 -42 -21 -36 -23 -50 -17 -86 10 -48 3 -57 -26 -37 -13 9 -23 31 -27 57
-19 123 -19 126 4 163 20 32 83 85 102 85 5 0 8 -31 8 -70z m466 -23 c23 -20
28 -34 32 -85 2 -34 -1 -83 -7 -109 -27 -106 -159 -281 -245 -322 -55 -27
-119 -28 -146 -1 -30 30 -26 71 11 106 44 42 63 84 94 212 30 121 52 164 104
199 47 32 120 32 157 0z"/>
<path d="M1760 2978 c-30 -41 -60 -123 -60 -163 0 -27 32 -58 55 -53 10 1 25
23 34 46 10 24 34 66 54 93 43 59 45 68 14 97 -36 33 -63 28 -97 -20z"/>
<path d="M2214 2856 c-30 -22 -23 -94 20 -218 25 -72 35 -115 31 -135 -5 -23
-4 -25 5 -10 6 9 22 17 35 17 51 0 59 -84 9 -96 -17 -4 -22 -10 -15 -17 18
-18 62 2 73 33 8 24 17 31 48 36 31 5 37 9 31 23 -5 9 -18 57 -30 106 -24 105
-80 225 -118 255 -30 23 -61 26 -89 6z m91 -47 c36 -44 59 -91 88 -184 40
-129 40 -135 18 -135 -14 0 -21 9 -26 33 -10 45 -13 47 -40 37 -28 -11 -31 -4
-10 24 36 47 -8 124 -65 113 -26 -6 -29 -3 -39 38 -12 50 -14 88 -4 98 16 17
53 5 78 -24z"/>
<path d="M1913 2784 c-40 -40 -28 -103 41 -218 104 -173 112 -193 98 -216 -15
-25 -5 -25 33 0 17 11 54 25 83 31 53 12 59 17 43 35 -5 5 -19 40 -31 79 -84
254 -188 368 -267 289z m116 -42 c41 -43 91 -139 127 -244 28 -84 29 -88 9
-88 -8 0 -15 7 -15 15 0 8 -5 26 -12 40 -10 22 -16 25 -41 19 l-29 -6 17 26
c22 33 13 69 -25 107 -28 29 -73 39 -85 19 -12 -19 -26 -10 -41 25 -45 109 18
168 95 87z"/>
<path d="M2675 2419 c-10 -15 3 -25 16 -12 7 7 7 13 1 17 -6 3 -14 1 -17 -5z"/>
<path d="M2465 2408 c-11 -6 -45 -27 -75 -46 -66 -43 -164 -81 -217 -83 -24 0
-56 9 -87 25 -56 29 -68 31 -111 12 -30 -13 -30 -13 20 -13 60 1 90 -14 115
-56 37 -60 26 -103 -56 -214 -22 -31 -3 -29 35 3 l31 25 32 -24 c77 -57 168
-60 275 -7 62 31 102 71 139 140 14 26 19 57 19 118 0 79 -1 85 -28 108 -30
26 -60 30 -92 12z m-28 -75 c9 -27 -146 -99 -239 -110 -40 -5 -48 -3 -48 11 0
11 9 16 28 16 38 1 158 44 201 74 37 25 52 28 58 9z m39 -195 c13 -6 24 -15
24 -20 0 -15 -81 -67 -132 -84 -89 -29 -200 -6 -183 39 16 40 90 61 155 43 24
-7 24 -6 6 8 -15 12 -16 16 -5 20 8 2 21 7 29 10 19 6 74 -2 106 -16z"/>
<path d="M2652 2359 c2 -6 8 -10 13 -10 5 0 11 4 13 10 2 6 -4 11 -13 11 -9 0
-15 -5 -13 -11z"/>
<path d="M2040 2225 c0 -9 5 -15 11 -13 6 2 11 8 11 13 0 5 -5 11 -11 13 -6 2
-11 -4 -11 -13z"/>
<path d="M2026 2173 c-11 -11 -6 -23 9 -23 8 0 15 4 15 9 0 13 -16 22 -24 14z"/>
<path d="M2080 2160 c0 -5 7 -10 15 -10 8 0 15 5 15 10 0 6 -7 10 -15 10 -8 0
-15 -4 -15 -10z"/>
<path d="M1350 1620 c0 -5 5 -10 11 -10 5 0 7 5 4 10 -3 6 -8 10 -11 10 -2 0
-4 -4 -4 -10z"/>
<path d="M558 3944 c-117 -36 -236 -151 -307 -298 -59 -123 -75 -181 -75 -273
-1 -72 2 -84 23 -107 13 -14 38 -30 56 -36 l32 -11 6 -92 c11 -175 59 -264
149 -274 25 -3 62 0 81 6 47 16 126 88 167 152 l33 51 61 -7 c123 -14 330 -90
371 -135 13 -14 14 -22 4 -44 -11 -22 -10 -29 4 -43 13 -13 19 -14 31 -4 42
35 20 133 -40 180 -15 12 -25 23 -23 26 15 14 245 125 260 125 11 0 19 4 19 9
0 18 -53 51 -82 51 -39 0 -134 -33 -234 -82 l-84 -41 -78 26 c-42 14 -94 28
-114 32 l-37 7 30 52 c57 96 117 231 129 290 15 73 -2 228 -31 296 -58 131
-201 190 -351 144z m211 -80 c41 -34 55 -89 48 -189 -5 -74 -47 -224 -89 -323
l-14 -33 -12 26 c-15 33 -37 32 -108 -6 -62 -33 -164 -72 -171 -65 -3 2 -1 25
2 50 6 39 11 45 34 48 25 3 26 6 34 82 10 89 1 106 -53 106 -47 0 -83 -55
-121 -185 l-18 -60 0 43 c-1 67 17 128 71 241 41 85 62 116 121 175 116 115
210 146 276 90z m-104 -642 c-25 -47 -46 -62 -85 -62 -8 0 12 27 45 60 32 33
61 58 63 55 2 -2 -8 -26 -23 -53z m-188 -32 c-46 -55 -44 -121 5 -139 12 -4
39 -5 60 -1 21 4 38 5 38 1 0 -15 -60 -108 -84 -130 -25 -24 -26 -24 -46 -6
-29 26 -40 77 -40 192 l0 102 28 4 c65 10 66 9 39 -23z"/>
<path d="M3726 3543 c-39 -59 -136 -325 -136 -372 0 -36 4 -44 33 -61 46 -29
61 -23 62 25 2 41 69 198 132 306 46 79 50 103 22 123 -13 9 -38 16 -56 16
-27 0 -37 -7 -57 -37z"/>
<path d="M2635 3215 c-153 -30 -168 -42 -124 -99 27 -34 49 -33 196 5 65 17
137 31 161 31 23 1 42 5 42 9 0 4 -12 21 -26 38 -25 30 -29 31 -102 30 -43 0
-108 -7 -147 -14z"/>
<path d="M3480 2735 c7 -9 15 -13 17 -11 7 7 -7 26 -19 26 -6 0 -6 -6 2 -15z"/>
<path d="M3496 2691 c-4 -5 -29 -15 -56 -22 -28 -7 -50 -18 -50 -25 0 -10 15
-8 56 6 31 11 60 18 64 15 5 -3 6 4 3 15 -6 22 -9 24 -17 11z"/>
<path d="M3462 2591 c-49 -35 -51 -39 -30 -45 32 -8 45 -7 30 3 -11 6 -7 13
16 30 17 11 35 21 41 21 6 0 11 7 11 15 0 22 -9 19 -68 -24z"/>
<path d="M3488 2552 c-5 -18 -2 -22 15 -22 13 0 17 3 11 8 -6 4 -13 14 -16 22
-3 10 -6 8 -10 -8z"/>
<path d="M3530 2530 c0 -5 5 -10 11 -10 5 0 7 5 4 10 -3 6 -8 10 -11 10 -2 0
-4 -4 -4 -10z"/>
<path d="M3505 2470 c3 -5 -10 -24 -29 -41 -20 -17 -36 -38 -36 -46 0 -21 9
-15 64 45 48 51 48 52 22 52 -15 0 -25 -4 -21 -10z"/>
<path d="M3443 2463 c9 -2 23 -2 30 0 6 3 -1 5 -18 5 -16 0 -22 -2 -12 -5z"/>
<path d="M3515 2390 l-40 -7 43 -2 c23 0 42 4 42 9 0 6 -1 9 -2 9 -2 -1 -21
-5 -43 -9z"/>
<path d="M3505 2318 c-59 -23 -72 -33 -51 -41 9 -4 16 -3 16 2 0 5 9 11 20 14
15 4 20 0 20 -14 0 -13 -5 -17 -17 -12 -32 11 -8 -6 30 -22 21 -9 37 -11 37
-5 0 5 -9 10 -20 10 -16 0 -20 7 -20 30 0 19 5 30 14 30 14 0 32 18 25 25 -2
1 -26 -6 -54 -17z"/>
<path d="M3430 2183 c0 -10 4 -14 8 -8 4 6 11 13 16 18 5 4 2 7 -7 7 -10 0
-17 -8 -17 -17z"/>
<path d="M3485 2170 c-23 -24 -31 -27 -43 -17 -12 10 -14 9 -10 -3 8 -26 45
-24 64 4 9 14 23 26 30 26 23 0 28 -29 8 -51 -16 -18 -16 -19 -1 -13 36 13 29
84 -7 84 -7 0 -25 -13 -41 -30z"/>
<path d="M3525 2062 c0 -39 -3 -40 -60 -28 -11 3 -25 5 -32 5 -6 1 -14 9 -16
19 -3 11 -5 7 -6 -10 -1 -25 3 -27 47 -34 26 -3 52 -11 58 -15 8 -6 14 -2 18
13 8 32 7 76 -1 81 -5 3 -8 -11 -8 -31z"/>
<path d="M3467 2069 c4 -15 8 -17 14 -8 8 14 3 29 -11 29 -4 0 -6 -9 -3 -21z"/>
<path d="M3386 1953 c-19 -56 -19 -50 -3 -56 10 -4 13 2 9 19 -5 28 1 29 58 9
49 -17 60 -18 60 -6 0 5 -23 14 -50 21 -58 14 -71 27 -45 47 16 11 16 13 3 13
-10 0 -22 -17 -32 -47z"/>
<path d="M3362 1868 c-18 -18 -15 -33 4 -18 12 11 18 10 32 -3 23 -24 4 -41
-31 -28 -19 7 -27 7 -30 -4 -4 -9 5 -15 26 -19 18 -3 44 -13 59 -20 18 -9 30
-11 34 -5 7 12 7 11 -26 26 l-25 11 30 11 c17 6 36 14 43 16 6 2 12 9 12 14 0
6 -11 6 -31 -1 -26 -9 -32 -8 -45 11 -17 24 -34 27 -52 9z"/>
<path d="M3300 1732 c0 -9 84 -101 88 -97 3 3 -3 11 -12 18 -16 12 -17 16 -5
36 10 15 21 21 36 18 12 -2 24 2 27 9 3 9 -14 13 -65 16 -38 2 -69 2 -69 0z
m65 -22 c11 -17 -5 -32 -21 -19 -8 6 -14 15 -14 20 0 12 27 11 35 -1z"/>
<path d="M3197 1620 c3 -11 7 -20 9 -20 2 0 4 9 4 20 0 11 -4 20 -9 20 -5 0
-7 -9 -4 -20z"/>
<path d="M3229 1613 c-13 -17 -13 -17 6 -3 11 8 22 16 24 17 2 2 0 3 -6 3 -6
0 -17 -8 -24 -17z"/>
<path d="M3274 1592 c2 -4 -2 -16 -11 -27 -14 -20 -14 -20 -32 2 -17 20 -31
21 -31 2 0 -4 22 -23 49 -42 l49 -35 25 35 c15 20 23 41 19 47 -4 7 -8 3 -10
-9 -5 -22 -20 -45 -31 -45 -4 0 -15 6 -26 13 -17 13 -17 15 3 35 17 17 18 21
6 26 -8 3 -13 2 -10 -2z"/>
<path d="M3175 1540 c-3 -5 1 -10 10 -10 9 0 13 5 10 10 -3 6 -8 10 -10 10 -2
0 -7 -4 -10 -10z"/>
<path d="M3146 1501 c-16 -17 -15 -19 6 -33 13 -9 35 -27 50 -41 23 -21 29
-23 39 -11 9 11 8 14 -4 14 -8 0 -20 7 -27 15 -10 13 -10 19 4 34 11 13 14 21
7 26 -6 3 -11 -1 -11 -10 0 -21 -27 -30 -45 -15 -12 10 -13 16 -4 26 17 21 5
17 -15 -5z"/>
<path d="M3080 1408 c0 -7 5 -20 11 -28 9 -13 10 -12 5 3 -6 20 -2 21 25 6 16
-8 18 -13 9 -25 -7 -7 -17 -11 -23 -7 -7 4 -8 0 -3 -13 5 -10 11 -27 13 -36 3
-10 9 -15 14 -12 5 3 3 13 -3 24 -18 28 7 53 44 46 48 -9 31 10 -28 33 -66 25
-64 25 -64 9z"/>
<path d="M3016 1361 c-3 -5 1 -11 9 -15 8 -3 15 -1 15 4 0 13 -18 22 -24 11z"/>
<path d="M2977 1332 c-32 -35 -11 -92 39 -106 22 -7 74 26 74 47 0 6 -7 1 -16
-11 -18 -27 -55 -29 -77 -4 -20 22 -22 63 -5 80 7 7 10 12 7 12 -3 0 -13 -8
-22 -18z"/>
</g>
</svg>
